<svg width="76" height="24" viewBox="0 0 76 24" fill="none" xmlns="http://www.w3.org/2000/svg">
<path d="M9 17L4 12L9 7" stroke="white" stroke-width="2" stroke-linecap="round" stroke-linejoin="round"/>
<path d="M20 18V16C20 14.9391 19.5786 13.9217 18.8284 13.1716C18.0783 12.4214 17.0609 12 16 12H4" stroke="white" stroke-width="2" stroke-linecap="round" stroke-linejoin="round"/>
<path d="M39.584 5.944H41.192V17.092H39.584V5.944ZM40.832 10.06H42.8V11.368H40.832V10.06ZM32.912 13.096H33.848C35.72 13.096 37.196 13.036 38.828 12.748L38.984 14.068C37.304 14.368 35.78 14.416 33.848 14.416H32.912V13.096ZM32.912 6.976H38.096V8.26H34.496V13.732H32.912V6.976ZM46.1111 6.808H47.4071V8.428C47.4071 11.284 46.4231 13.864 44.2151 14.884L43.2671 13.564C45.1991 12.724 46.1111 10.588 46.1111 8.428V6.808ZM46.4231 6.808H47.7191V8.428C47.7191 10.48 48.5951 12.52 50.4911 13.336L49.5551 14.62C47.4071 13.636 46.4231 11.164 46.4231 8.428V6.808ZM51.0191 5.944H52.6271V17.092H51.0191V5.944ZM55.8901 13.06H63.7981V17.068H62.1901V14.32H55.8901V13.06ZM62.1901 5.956H63.7981V12.568H62.1901V5.956ZM55.7221 7.288H56.8501V7.924C56.8501 9.736 56.4421 11.536 54.9301 12.34L54.1021 11.2C55.3381 10.528 55.7221 9.196 55.7221 7.924V7.288ZM56.1301 7.288H57.2101V7.924C57.2101 9.088 57.4981 10.492 58.7221 11.296L58.0261 12.448C56.4661 11.56 56.1301 9.568 56.1301 7.924V7.288ZM58.8421 7.288H59.9341V7.924C59.9341 9.592 59.5981 11.572 58.0261 12.448L57.3421 11.296C58.5661 10.504 58.8421 9.1 58.8421 7.924V7.288ZM59.2261 7.288H60.3661V7.924C60.3661 9.196 60.7261 10.528 61.9741 11.2L61.1581 12.34C59.6341 11.524 59.2261 9.736 59.2261 7.924V7.288ZM54.5221 6.688H57.8221V7.948H54.5221V6.688ZM58.2421 6.688H61.4341V7.948H58.2421V6.688ZM72.8932 5.956H74.5012V17.068H72.8932V5.956ZM69.6172 7.108H71.2012C71.2012 10.504 70.0492 13.288 66.1012 15.196L65.2732 13.924C68.4652 12.388 69.6172 10.372 69.6172 7.396V7.108ZM65.8612 7.108H70.3732V8.368H65.8612V7.108Z" fill="white"/>
</svg>
