<svg width="60" height="60" viewBox="0 0 60 60" fill="none" xmlns="http://www.w3.org/2000/svg">
<rect width="60" height="60" rx="8" fill="white"/>
<path d="M32.484 25.088H33.492V30.908H32.484V25.088ZM26.496 31.448H27.48V32.768H32.508V31.448H33.492V35.792H26.496V31.448ZM27.48 33.56V34.988H32.508V33.56H27.48ZM27.672 25.604C29.316 25.604 30.492 26.624 30.492 28.1C30.492 29.588 29.316 30.608 27.672 30.608C26.028 30.608 24.84 29.588 24.84 28.1C24.84 26.624 26.028 25.604 27.672 25.604ZM27.672 26.432C26.592 26.432 25.812 27.116 25.812 28.1C25.812 29.084 26.592 29.768 27.672 29.768C28.752 29.768 29.532 29.084 29.532 28.1C29.532 27.116 28.752 26.432 27.672 26.432Z" fill="black"/>
</svg>
