<svg width="43" height="13" viewBox="0 0 43 13" fill="none" xmlns="http://www.w3.org/2000/svg">
<path d="M8.208 0.943999H9.804V12.092H8.208V0.943999ZM6.264 4.832H8.58V6.116H6.264V4.832ZM3.048 2.708H4.308V3.692C4.308 6.404 3.324 8.996 1.248 10.016L0.312 8.756C2.172 7.88 3.048 5.756 3.048 3.692V2.708ZM3.42 2.708H4.668V3.692C4.668 5.648 5.532 7.7 7.392 8.54L6.468 9.788C4.38 8.804 3.42 6.32 3.42 3.692V2.708ZM0.768 2.024H6.948V3.308H0.768V2.024ZM13.8711 2.192H15.1791V2.888C15.1791 5.012 14.1831 6.92 12.0351 7.628L11.2431 6.368C13.0911 5.756 13.8711 4.304 13.8711 2.888V2.192ZM14.1951 2.192H15.4911V2.888C15.4911 4.184 16.2351 5.456 18.0231 5.996L17.2671 7.244C15.1551 6.608 14.1951 4.868 14.1951 2.888V2.192ZM11.6631 1.7H17.6631V2.972H11.6631V1.7ZM18.5511 0.956H20.1471V7.544H18.5511V0.956ZM19.7031 3.512H21.6231V4.82H19.7031V3.512ZM16.5231 7.748C18.8271 7.748 20.2791 8.552 20.2791 9.908C20.2791 11.264 18.8271 12.068 16.5231 12.068C14.2071 12.068 12.7551 11.264 12.7551 9.908C12.7551 8.552 14.2071 7.748 16.5231 7.748ZM16.5231 8.996C15.1071 8.996 14.3391 9.284 14.3391 9.908C14.3391 10.532 15.1071 10.844 16.5231 10.844C17.9391 10.844 18.6951 10.532 18.6951 9.908C18.6951 9.284 17.9391 8.996 16.5231 8.996ZM29.4461 0.956H31.0301V12.068H29.4461V0.956ZM30.6701 5.288H32.6381V6.62H30.6701V5.288ZM22.2701 2.6H28.7381V3.872H22.2701V2.6ZM25.5221 4.496C27.1421 4.496 28.3421 5.6 28.3421 7.148C28.3421 8.696 27.1421 9.8 25.5221 9.8C23.9021 9.8 22.7021 8.696 22.7021 7.148C22.7021 5.6 23.9021 4.496 25.5221 4.496ZM25.5221 5.792C24.7661 5.792 24.2261 6.296 24.2261 7.148C24.2261 8 24.7661 8.504 25.5221 8.504C26.2781 8.504 26.8181 8 26.8181 7.148C26.8181 6.296 26.2781 5.792 25.5221 5.792ZM24.7181 1.136H26.3141V3.08H24.7181V1.136ZM40.8932 0.956H42.5012V12.068H40.8932V0.956ZM37.6172 2.108H39.2012C39.2012 5.504 38.0492 8.288 34.1012 10.196L33.2732 8.924C36.4652 7.388 37.6172 5.372 37.6172 2.396V2.108ZM33.8612 2.108H38.3732V3.368H33.8612V2.108Z" fill="white"/>
</svg>
